<?xml version="1.0" standalone="no"?>
<!DOCTYPE svg PUBLIC "-//W3C//DTD SVG 20010904//EN"
 "http://www.w3.org/TR/2001/REC-SVG-20010904/DTD/svg10.dtd">
<svg version="1.0" xmlns="http://www.w3.org/2000/svg"
 width="700.000000pt" height="700.000000pt" viewBox="0 0 700.000000 700.000000"
 preserveAspectRatio="xMidYMid meet">
<metadata>
Created by potrace 1.14, written by Peter Selinger 2001-2017
</metadata>
<g transform="translate(0.000000,700.000000) scale(0.100000,-0.100000)"
fill="#000000" stroke="none">
<path d="M3417 6984 c-1 -1 -59 -5 -129 -8 -71 -4 -138 -9 -150 -11 -12 -3
-52 -7 -88 -11 -36 -3 -67 -7 -70 -9 -3 -2 -30 -6 -60 -10 -30 -4 -57 -8 -60
-10 -3 -2 -23 -6 -45 -9 -36 -6 -87 -18 -255 -61 -150 -38 -430 -146 -606
-233 -785 -388 -1405 -1074 -1716 -1897 -71 -189 -138 -432 -164 -600 -3 -22
-7 -42 -9 -45 -2 -3 -7 -33 -10 -65 -4 -33 -9 -68 -10 -77 -4 -18 -13 -109
-20 -198 -7 -87 -7 -377 0 -465 16 -193 24 -257 60 -460 27 -149 114 -433 191
-625 49 -124 185 -390 257 -507 391 -627 973 -1124 1642 -1400 279 -116 615
-206 885 -237 25 -3 65 -8 90 -11 192 -22 501 -22 695 0 22 2 67 7 100 11 33
3 69 8 80 10 11 3 36 7 55 10 61 9 73 12 153 28 516 107 1037 358 1467 704 96
78 360 335 441 428 224 262 423 581 559 899 57 131 162 437 173 505 3 14 10
43 15 65 12 44 14 54 42 205 47 259 62 525 45 800 -12 203 -19 254 -62 490 -7
42 -44 193 -53 220 -4 14 -16 52 -25 85 -72 251 -250 646 -375 832 -17 24 -30
46 -30 48 0 17 -223 314 -300 399 -162 181 -243 260 -385 380 -44 37 -89 75
-100 85 -22 18 -144 107 -179 131 -13 8 -36 24 -52 34 -252 168 -524 300 -811
396 -133 44 -338 100 -418 114 -16 3 -55 10 -85 16 -113 20 -283 40 -407 46
-132 6 -273 10 -276 8z m1021 -1646 c5 -7 26 -69 46 -138 21 -69 50 -168 66
-220 16 -52 47 -158 70 -235 22 -77 50 -171 61 -210 12 -38 38 -126 59 -195
21 -69 40 -136 44 -150 l5 -25 -1249 0 c-1245 0 -1250 0 -1244 20 4 11 31 97
61 190 30 94 56 175 57 180 2 9 103 324 148 460 11 33 21 67 23 75 10 45 67
197 79 208 11 11 53 5 252 -38 131 -28 250 -54 264 -56 14 -3 42 -9 62 -15 33
-8 61 -7 148 7 54 9 147 23 190 30 50 7 63 9 135 19 28 4 59 9 70 11 27 6 54
10 250 39 94 14 177 27 185 30 8 2 40 7 70 10 30 4 57 9 59 11 10 10 79 3 89
-8z m-488 -1562 c19 -2 67 -7 105 -10 125 -11 166 -16 335 -41 321 -47 859
-190 1075 -285 11 -5 65 -28 120 -51 122 -51 239 -109 232 -115 -6 -6 -4568
-6 -4574 0 -17 17 605 265 730 290 12 3 54 14 92 26 92 27 338 85 445 104 120
22 133 24 245 40 88 13 136 19 250 31 17 2 77 6 135 10 58 4 107 9 109 11 5 5
659 -4 701 -10z m-1201 -757 c209 -37 411 -182 507 -365 16 -31 32 -57 35 -59
3 -2 34 3 70 11 112 27 286 22 385 -10 17 -5 24 1 40 36 10 23 38 68 61 99
129 176 316 280 527 295 310 22 596 -157 713 -446 75 -187 62 -423 -34 -596
-92 -165 -241 -289 -413 -343 -86 -27 -116 -32 -219 -32 -333 -3 -624 237
-690 568 -9 48 -16 113 -15 145 l2 56 -52 15 c-61 17 -221 16 -283 -3 l-43
-13 -1 -61 c-3 -130 -18 -196 -77 -316 -39 -80 -60 -109 -131 -180 -143 -142
-302 -210 -494 -211 -131 -1 -219 20 -342 84 -157 81 -318 280 -351 432 -21
94 -25 130 -25 200 0 153 62 322 165 447 105 127 271 224 416 244 25 3 47 8
49 10 9 8 137 3 200 -7z"/>
<path d="M2502 2804 c-127 -39 -258 -143 -314 -250 -103 -193 -67 -436 87
-590 225 -226 596 -193 773 68 184 273 66 641 -243 758 -73 27 -235 35 -303
14z"/>
<path d="M4303 2805 c-122 -33 -259 -134 -307 -224 -9 -17 -23 -44 -31 -60
-27 -50 -46 -167 -40 -242 18 -251 214 -446 468 -465 176 -14 365 82 459 231
68 108 94 274 62 393 -36 135 -140 268 -254 324 -114 56 -247 72 -357 43z"/>
</g>
</svg>
